<?xml version="1.0" encoding="UTF-8"?>
<svg width="84px" height="84px" viewBox="0 0 84 84" version="1.1" xmlns="http://www.w3.org/2000/svg" xmlns:xlink="http://www.w3.org/1999/xlink">
    <!-- Generator: Sketch 48.2 (47327) - http://www.bohemiancoding.com/sketch -->
    <title>Branding-icon</title>
    <desc>Created with Sketch.</desc>
    <defs>
        <linearGradient x1="1242.70491%" y1="16.5015394%" x2="0%" y2="93.3315881%" id="linearGradient-1">
            <stop stop-color="#FDE0C2" offset="0%"></stop>
            <stop stop-color="#FF706F" offset="100%"></stop>
        </linearGradient>
    </defs>
    <g id="Desktop-HD" stroke="none" stroke-width="1" fill="none" fill-rule="evenodd" transform="translate(-131.000000, -1045.000000)">
        <g id="Branding-icon" transform="translate(125.000000, 1039.000000)">
            <rect id="Rectangle-7" x="0" y="0" width="96" height="96"></rect>
            <path d="M87,56.276 L78.628,56.276 L78.628,31.141 C78.628,30.306 80.938,28.352 82.813,28.352 C84.689,28.352 87,30.306 87,31.141 L87,56.276 Z M87,81.417 C87,84.644 84.981,87 82.813,87 C80.669,87 78.628,84.959 78.628,82.814 L78.628,59.076 L87,59.076 L87,81.417 Z M82.813,25.551 C80.063,25.551 77.092,27.667 76.143,29.809 C72.648,30.211 70.241,32.585 70.241,36.727 L70.241,61.987 C70.241,62.759 70.868,63.386 71.642,63.386 C72.415,63.386 73.041,62.759 73.041,61.987 L73.041,36.727 C73.041,34.402 74.063,33.124 75.827,32.707 L75.827,82.814 C75.827,86.505 79.122,89.799 82.813,89.799 C86.632,89.799 89.8,86.103 89.8,81.417 L89.8,31.141 C89.8,28.647 86.142,25.551 82.813,25.551 Z M25.962,57.269 C26.508,57.816 27.395,57.816 27.941,57.269 L34.924,50.287 C35.471,49.74 35.471,48.853 34.924,48.306 C34.378,47.76 33.491,47.76 32.944,48.306 L26.952,54.299 L26.545,53.892 C25.999,53.346 25.112,53.346 24.565,53.892 C24.019,54.439 24.019,55.326 24.565,55.873 L25.962,57.269 Z M25.962,43.303 C26.508,43.85 27.395,43.85 27.941,43.303 L34.924,36.321 C35.471,35.774 35.471,34.888 34.924,34.341 C34.378,33.794 33.491,33.794 32.944,34.341 L26.952,40.334 L26.545,39.927 C25.999,39.38 25.112,39.38 24.565,39.927 C24.019,40.474 24.019,41.36 24.565,41.907 L25.962,43.303 Z M39.521,73.042 L53.486,73.042 C54.26,73.042 54.887,72.415 54.887,71.641 C54.887,70.868 54.26,70.241 53.486,70.241 L39.521,70.241 C38.748,70.241 38.121,70.868 38.121,71.641 C38.121,72.415 38.748,73.042 39.521,73.042 Z M39.521,59.076 L53.486,59.076 C54.26,59.076 54.887,58.449 54.887,57.675 C54.887,56.902 54.26,56.276 53.486,56.276 L39.521,56.276 C38.748,56.276 38.121,56.902 38.121,57.675 C38.121,58.449 38.748,59.076 39.521,59.076 Z M39.521,45.11 L53.486,45.11 C54.26,45.11 54.887,44.484 54.887,43.71 C54.887,42.937 54.26,42.31 53.486,42.31 L39.521,42.31 C38.748,42.31 38.121,42.937 38.121,43.71 C38.121,44.484 38.748,45.11 39.521,45.11 Z M60.469,28.345 L25.67,28.345 C28.195,26.025 29.748,22.487 29.748,18.572 C29.748,14.705 28.002,11.14 25.288,8.8 L60.469,8.8 C65.532,8.8 70.241,13.509 70.241,18.572 C70.241,23.635 65.532,28.345 60.469,28.345 Z M19.972,87 L59.069,87 L59.069,31.145 L19.972,31.145 L19.972,87 Z M26.164,22.765 C25.033,25.608 22.77,27.69 19.973,28.215 L19.973,22.765 L26.164,22.765 Z M17.172,21.365 L17.172,29.745 L17.172,61.862 L8.8,61.862 L8.8,18.572 C8.8,13.37 13.034,8.8 17.965,8.8 C22.855,8.8 26.948,13.325 26.948,18.572 C26.948,19.046 26.92,19.51 26.867,19.965 L18.572,19.965 C17.799,19.965 17.172,20.592 17.172,21.365 Z M60.469,6 L18.572,6 C18.498,6 18.427,6.01 18.356,6.022 C18.225,6.017 18.097,6 17.965,6 C11.438,6 6,11.87 6,18.572 L6,63.262 C6,64.035 6.627,64.662 7.4,64.662 L17.172,64.662 L17.172,88.4 C17.172,89.173 17.799,89.799 18.572,89.799 L60.469,89.799 C61.242,89.799 61.869,89.173 61.869,88.4 L61.869,31.048 C67.896,30.283 73.041,24.711 73.041,18.572 C73.041,11.963 67.078,6 60.469,6 Z" id="Page-1" fill="url(#linearGradient-1)"></path>
        </g>
    </g>
</svg>