<?xml version="1.0" encoding="UTF-8"?>
<svg width="81px" height="84px" viewBox="0 0 81 84" version="1.1" xmlns="http://www.w3.org/2000/svg" xmlns:xlink="http://www.w3.org/1999/xlink">
    <!-- Generator: Sketch 48.2 (47327) - http://www.bohemiancoding.com/sketch -->
    <title>Development-icon</title>
    <desc>Created with Sketch.</desc>
    <defs>
        <linearGradient x1="255.237652%" y1="12.2875324%" x2="-1178.56074%" y2="91.2925935%" id="linearGradient-1">
            <stop stop-color="#FDE0C2" offset="0%"></stop>
            <stop stop-color="#FF706F" offset="100%"></stop>
        </linearGradient>
    </defs>
    <g id="Desktop-HD" stroke="none" stroke-width="1" fill="none" fill-rule="evenodd" transform="translate(-1085.000000, -1045.000000)">
        <g id="Development-icon" transform="translate(1077.000000, 1039.000000)">
            <rect id="Rectangle-7" x="0" y="0" width="96" height="96"></rect>
            <path d="M67.306,29.696 L67.333,29.713 C67.341,29.718 67.351,29.72 67.36,29.725 C67.451,29.78 67.547,29.822 67.65,29.856 C67.676,29.865 67.702,29.874 67.73,29.881 C67.843,29.91 67.959,29.931 68.081,29.931 C68.187,29.931 68.288,29.917 68.387,29.895 C68.394,29.894 68.4,29.894 68.407,29.893 C68.415,29.891 68.422,29.884 68.43,29.882 C68.6,29.838 68.757,29.765 68.896,29.666 C68.908,29.657 68.916,29.648 68.928,29.639 C69.064,29.535 69.18,29.409 69.27,29.263 C69.274,29.258 69.28,29.254 69.284,29.248 L76.067,17.895 C76.463,17.232 76.246,16.371 75.582,15.975 C74.921,15.582 74.06,15.794 73.662,16.459 L69.055,24.171 C67.024,13.827 57.911,6 47.008,6 C34.507,6 24.714,15.818 24.714,28.349 C24.714,29.122 25.341,29.749 26.115,29.749 C26.888,29.749 27.515,29.122 27.515,28.349 C27.515,17.387 36.077,8.801 47.008,8.801 C56.951,8.801 65.172,16.243 66.479,25.86 L57.506,20.184 C56.855,19.77 55.989,19.964 55.576,20.618 C55.161,21.272 55.356,22.136 56.01,22.549 L67.294,29.689 L67.306,29.696 Z M86,82.222 L64.307,60.47 L86,38.718 L86,82.222 Z M87.936,34.038 C87.413,33.821 86.81,33.943 86.41,34.344 L61.338,59.482 C60.793,60.028 60.793,60.913 61.338,61.459 L86.41,86.596 C86.677,86.865 87.036,87.009 87.401,87.009 C87.581,87.009 87.763,86.973 87.936,86.902 C88.459,86.685 88.801,86.175 88.801,85.608 L88.801,35.332 C88.801,34.766 88.459,34.255 87.936,34.038 Z M10.801,82.222 L10.801,38.718 L32.494,60.47 L10.801,82.222 Z M10.392,34.344 C9.993,33.943 9.388,33.823 8.866,34.038 C8.342,34.255 8,34.766 8,35.332 L8,85.608 C8,86.175 8.342,86.685 8.866,86.902 C9.038,86.973 9.22,87.009 9.401,87.009 C9.765,87.009 10.124,86.865 10.392,86.596 L35.463,61.459 C36.008,60.913 36.008,60.028 35.463,59.482 L10.392,34.344 Z M48.401,33.932 C47.627,33.932 47,34.559 47,35.332 L47,88.401 C47,89.175 47.627,89.801 48.401,89.801 C49.174,89.801 49.801,89.175 49.801,88.401 L49.801,35.332 C49.801,34.559 49.174,33.932 48.401,33.932 Z" id="Fill-1" fill="url(#linearGradient-1)"></path>
        </g>
    </g>
</svg>