<?xml version="1.0" encoding="UTF-8"?>
<svg width="80px" height="34px" viewBox="0 0 80 34" version="1.1" xmlns="http://www.w3.org/2000/svg" xmlns:xlink="http://www.w3.org/1999/xlink">
    <!-- Generator: Sketch 48.2 (47327) - http://www.bohemiancoding.com/sketch -->
    <title>Logo</title>
    <desc>Created with Sketch.</desc>
    <defs>
        <polygon id="path-1" points="0.356752475 0.348257143 30.2141782 0.348257143 30.2141782 28.3333333 0.356752475 28.3333333"></polygon>
        <polygon id="path-3" points="0.139881188 0.303571429 6.55889109 0.303571429 6.55889109 6.86354762 0.139881188 6.86354762"></polygon>
    </defs>
    <g id="Desktop-HD" stroke="none" stroke-width="1" fill="none" fill-rule="evenodd" transform="translate(-49.000000, -36.000000)">
        <g id="Logo" transform="translate(49.000000, 36.000000)">
            <path d="M15.5477228,24.1553 C14.3873267,25.1145857 12.7247525,25.5930143 10.5584158,25.5930143 L8.8570297,25.5930143 L8.8570297,13.6954429 L10.9069307,13.6954429 C12.840396,13.6954429 14.3873267,14.2013952 15.5477228,15.2124905 C16.7081188,16.2235857 17.2879208,17.6353952 17.2879208,19.447919 C17.2879208,21.6279667 16.7081188,23.1968238 15.5477228,24.1553 M25.2554455,12.865681 C24.3524752,11.1001095 23.1477228,9.68344286 21.6388119,8.61649048 C20.1306931,7.54872857 18.390495,6.7983 16.4182178,6.36277619 C14.4451485,5.9280619 12.3762376,5.71110952 10.2106931,5.71110952 L0,5.71110952 L0,33.6340143 C6.03643564,32.2562048 13.3726733,31.191681 21.5374257,30.5529667 C21.6427723,30.4752524 21.7489109,30.3983476 21.8518812,30.3165857 C23.2958416,29.1703 24.4491089,27.7018238 25.3132673,25.9095381 C26.1766337,24.1180619 26.6091089,21.9963 26.6091089,19.5458714 C26.6091089,16.8574429 26.1576238,14.6312524 25.2554455,12.865681" id="Fill-1" fill="#260780"></path>
            <path d="M46.1978614,18.3795095 C45.2822178,17.7076048 44.2834059,17.1611762 43.2006337,16.7394143 C42.1178614,16.3176524 41.0857822,15.9485095 40.1067723,15.6319857 C39.1523168,15.3162714 38.4624158,15.0531762 38.0370693,14.8418905 C37.6117228,14.6314143 37.3994455,14.3148905 37.3994455,13.8931286 C37.3994455,13.4454619 37.6053861,13.1224619 38.0180594,12.9249381 C38.4299406,12.7274143 38.9717228,12.6286524 39.6426139,12.6286524 C40.364198,12.6286524 41.1760792,12.8326524 42.0790495,13.2406524 C42.9812277,13.6494619 43.7416238,14.2485095 44.3610297,15.0394143 L50.0845941,9.07079524 C48.6667723,7.72698571 47.0232079,6.69889048 45.153901,5.98731905 C43.283802,5.27574762 41.4469703,4.92036667 39.6426139,4.92036667 C38.3016238,4.92036667 36.9479604,5.09198571 35.5816238,5.43603333 C34.214495,5.77927143 32.983604,6.3394619 31.8881584,7.11822381 C30.7919208,7.89779524 29.8960792,8.89431905 29.1998416,10.1077952 C28.503604,11.322081 28.1558812,12.801081 28.1558812,14.5431762 C28.1558812,15.7841762 28.3491485,16.8462714 28.7356832,17.731081 C29.1222178,18.615081 29.6449901,19.3744143 30.3024158,20.0074619 C30.9598416,20.641319 31.713901,21.1756048 32.5645941,21.6111286 C33.4152871,22.0474619 34.3047921,22.4238905 35.2331089,22.7404143 C36.1867723,23.0569381 36.9796436,23.3346048 37.6117228,23.5717952 C38.243802,23.8097952 38.7396436,24.0283667 39.1008317,24.2258905 C39.4620198,24.4234143 39.7131089,24.6144619 39.8548911,24.7990333 C39.9966733,24.9844143 40.0679604,25.2086524 40.0679604,25.4725571 C40.0679604,25.9736524 39.8548911,26.3177 39.4295446,26.5014619 C39.004198,26.6876524 38.533703,26.7791286 38.0180594,26.7791286 C36.8830099,26.7791286 35.7812277,26.5022714 34.7111287,25.9493667 C33.6410297,25.3956524 32.7832079,24.7634143 32.1392475,24.0518429 L26.5859802,30.2187952 C30.704,29.9945571 34.9946931,29.8755571 39.4034059,29.8755571 C42.213703,29.8755571 44.974099,29.9249381 47.674297,30.0180333 C47.923802,29.6634619 48.1558812,29.291081 48.3634059,28.8936048 C49.0208317,27.642081 49.3495446,26.1736048 49.3495446,24.4865571 C49.3495446,23.0375095 49.0533069,21.8256524 48.4600396,20.8501762 C47.8667723,19.8755095 47.1127129,19.0514143 46.1978614,18.3795095" id="Fill-3" fill="#260780"></path>
            <g id="Group-7" transform="translate(49.108911, 5.363095)">
                <mask id="mask-2" fill="white">
                    <use xlink:href="#path-1"></use>
                </mask>
                <g id="Clip-6"></g>
                <path d="M12.2688317,17.0284952 L14.512,10.1111143 L16.7163564,17.0284952 L12.2688317,17.0284952 Z M21.3207129,5.01597143 C20.2466535,2.20125714 17.5939802,0.348257143 14.6379406,0.348257143 C11.6914059,0.348257143 9.04506931,2.18911429 7.96467327,4.99087619 L0.356752475,24.723019 C3.5749703,24.859019 6.69893069,25.0581619 9.70407921,25.3164 L10.3583366,23.329019 L18.451802,23.329019 L19.5314059,26.4246381 C23.3254653,26.963781 26.8272475,27.6057333 29.9702178,28.3334952 L30.2141782,28.3334952 L21.3207129,5.01597143 Z" id="Fill-5" fill="#260780" mask="url(#mask-2)"></path>
            </g>
            <g id="Group-10" transform="translate(72.079208, 0.505952)">
                <mask id="mask-4" fill="white">
                    <use xlink:href="#path-3"></use>
                </mask>
                <g id="Clip-9"></g>
                <path d="M3.34938614,6.86354762 C5.12205941,6.86354762 6.55889109,5.39588095 6.55889109,3.58335714 C6.55889109,1.77245238 5.12205941,0.303166667 3.34938614,0.303166667 C1.57671287,0.303166667 0.139881188,1.77245238 0.139881188,3.58335714 C0.139881188,5.39588095 1.57671287,6.86354762 3.34938614,6.86354762" id="Fill-8" fill="#FF706F" mask="url(#mask-4)"></path>
            </g>
        </g>
    </g>
</svg>