<?xml version="1.0" encoding="UTF-8"?>
<svg width="84px" height="85px" viewBox="0 0 84 85" version="1.1" xmlns="http://www.w3.org/2000/svg" xmlns:xlink="http://www.w3.org/1999/xlink">
    <!-- Generator: Sketch 48.2 (47327) - http://www.bohemiancoding.com/sketch -->
    <title>UX-UI-icon</title>
    <desc>Created with Sketch.</desc>
    <defs>
        <linearGradient x1="740.537971%" y1="15.1678807%" x2="-576.318704%" y2="93.3817496%" id="linearGradient-1">
            <stop stop-color="#FDE0C2" offset="0%"></stop>
            <stop stop-color="#FF706F" offset="100%"></stop>
        </linearGradient>
    </defs>
    <g id="Desktop-HD" stroke="none" stroke-width="1" fill="none" fill-rule="evenodd" transform="translate(-607.000000, -1045.000000)">
        <g id="UX-UI-icon" transform="translate(601.000000, 1039.000000)">
            <rect id="Rectangle-7" x="0" y="0" width="96" height="96"></rect>
            <path d="M43.711,62.271 C42.938,62.271 42.311,62.898 42.311,63.671 L42.311,66.485 C42.311,67.258 42.938,67.885 43.711,67.885 C44.484,67.885 45.111,67.258 45.111,66.485 L45.111,63.671 C45.111,62.898 44.484,62.271 43.711,62.271 Z M11.59,87.593 L8.801,87.593 L8.801,84.773 C8.801,84 8.174,83.373 7.4,83.373 C6.627,83.373 6,84 6,84.773 L6,88.994 C6,89.767 6.627,90.394 7.4,90.394 L11.59,90.394 C12.363,90.394 12.99,89.767 12.99,88.994 C12.99,88.22 12.363,87.593 11.59,87.593 Z M43.711,83.373 C42.938,83.373 42.311,84 42.311,84.773 L42.311,87.593 L39.522,87.593 C38.748,87.593 38.121,88.22 38.121,88.994 C38.121,89.767 38.748,90.394 39.522,90.394 L43.711,90.394 C44.484,90.394 45.111,89.767 45.111,88.994 L45.111,84.773 C45.111,84 44.484,83.373 43.711,83.373 Z M11.59,51.017 L7.4,51.017 C6.627,51.017 6,51.644 6,52.417 L6,56.637 C6,57.411 6.627,58.038 7.4,58.038 C8.174,58.038 8.801,57.411 8.801,56.637 L8.801,53.818 L11.59,53.818 C12.363,53.818 12.99,53.191 12.99,52.417 C12.99,51.644 12.363,51.017 11.59,51.017 Z M21.366,87.593 L18.573,87.593 C17.8,87.593 17.173,88.22 17.173,88.994 C17.173,89.767 17.8,90.394 18.573,90.394 L21.366,90.394 C22.14,90.394 22.767,89.767 22.767,88.994 C22.767,88.22 22.14,87.593 21.366,87.593 Z M32.538,87.593 L29.745,87.593 C28.972,87.593 28.345,88.22 28.345,88.994 C28.345,89.767 28.972,90.394 29.745,90.394 L32.538,90.394 C33.312,90.394 33.939,89.767 33.939,88.994 C33.939,88.22 33.312,87.593 32.538,87.593 Z M39.522,53.818 L42.311,53.818 L42.311,56.637 C42.311,57.411 42.938,58.038 43.711,58.038 C44.484,58.038 45.111,57.411 45.111,56.637 L45.111,52.417 C45.111,51.644 44.484,51.017 43.711,51.017 L39.522,51.017 C38.748,51.017 38.121,51.644 38.121,52.417 C38.121,53.191 38.748,53.818 39.522,53.818 Z M7.4,79.139 C8.174,79.139 8.801,78.512 8.801,77.739 L8.801,74.925 C8.801,74.152 8.174,73.525 7.4,73.525 C6.627,73.525 6,74.152 6,74.925 L6,77.739 C6,78.512 6.627,79.139 7.4,79.139 Z M29.745,53.818 L32.538,53.818 C33.312,53.818 33.939,53.191 33.939,52.417 C33.939,51.644 33.312,51.017 32.538,51.017 L29.745,51.017 C28.972,51.017 28.345,51.644 28.345,52.417 C28.345,53.191 28.972,53.818 29.745,53.818 Z M7.4,67.885 C8.174,67.885 8.801,67.258 8.801,66.485 L8.801,63.671 C8.801,62.898 8.174,62.271 7.4,62.271 C6.627,62.271 6,62.898 6,63.671 L6,66.485 C6,67.258 6.627,67.885 7.4,67.885 Z M50.693,46.783 C51.054,46.783 51.413,46.646 51.687,46.37 L78.621,19.238 L78.621,35.78 C78.621,36.554 79.248,37.18 80.022,37.18 C80.795,37.18 81.422,36.554 81.422,35.78 L81.422,15.841 L81.422,15.836 C81.422,15.835 81.421,15.835 81.421,15.835 C81.421,15.652 81.384,15.479 81.319,15.319 C81.317,15.314 81.316,15.311 81.315,15.306 C81.243,15.133 81.139,14.978 81.009,14.848 C81.008,14.848 81.008,14.848 81.008,14.847 C81.007,14.846 81.006,14.846 81.005,14.845 C80.876,14.717 80.721,14.615 80.549,14.545 C80.542,14.542 80.534,14.542 80.527,14.539 C80.37,14.478 80.2,14.441 80.022,14.441 L60.227,14.441 C59.453,14.441 58.826,15.067 58.826,15.841 C58.826,16.614 59.453,17.241 60.227,17.241 L76.659,17.241 L49.7,44.397 C49.155,44.946 49.158,45.832 49.707,46.377 C49.981,46.648 50.337,46.783 50.693,46.783 Z M87,76.338 L45.111,76.338 L45.111,74.925 C45.111,74.152 44.484,73.525 43.711,73.525 C42.938,73.525 42.311,74.152 42.311,74.925 L42.311,76.338 L19.974,76.338 L19.974,53.818 L21.366,53.818 C22.14,53.818 22.767,53.191 22.767,52.417 C22.767,51.644 22.14,51.017 21.366,51.017 L19.974,51.017 L19.974,8.8 L87,8.8 L87,76.338 Z M88.4,6 L18.573,6 C17.8,6 17.173,6.626 17.173,7.4 L17.173,77.739 C17.173,78.512 17.8,79.139 18.573,79.139 L88.4,79.139 C89.174,79.139 89.801,78.512 89.801,77.739 L89.801,7.4 C89.801,6.626 89.174,6 88.4,6 Z" id="Fill-1" fill="url(#linearGradient-1)"></path>
        </g>
    </g>
</svg>