<?xml version="1.0" encoding="UTF-8"?>
<svg width="66px" height="66px" viewBox="0 0 66 66" version="1.1" xmlns="http://www.w3.org/2000/svg" xmlns:xlink="http://www.w3.org/1999/xlink">
    <!-- Generator: Sketch 48.2 (47327) - http://www.bohemiancoding.com/sketch -->
    <title>Plus</title>
    <desc>Created with Sketch.</desc>
    <defs></defs>
    <g id="Full-HD" stroke="none" stroke-width="1" fill="none" fill-rule="evenodd" transform="translate(-266.000000, -475.000000)">
        <path d="M324.368472,500.367788 L306.630256,500.367788 L306.630256,482.63094 C306.630256,478.416117 303.216419,475 298.998728,475 C294.783581,475 291.3672,478.416117 291.3672,482.63094 L291.3672,500.367788 L273.631528,500.367788 C269.413837,500.367788 266,503.783906 266,507.998728 C266,512.213551 269.413837,515.629668 273.631528,515.629668 L291.3672,515.629668 L291.3672,533.36906 C291.3672,537.583883 294.783581,541 298.998728,541 C303.216419,541 306.630256,537.583883 306.630256,533.36906 L306.630256,515.629668 L324.368472,515.629668 C328.583619,515.629668 332,512.213551 332,507.998728 C332,503.783906 328.583619,500.367788 324.368472,500.367788" id="Plus" fill="#00E676"></path>
    </g>
</svg>